<svg preserveAspectRatio="none" width="100%" height="100%" overflow="visible" style="display: block;" viewBox="0 0 31.1111 48.8889" fill="none" xmlns="http://www.w3.org/2000/svg">
<path id="?" d="M9.93188 33.2945C9.99765 25.1353 12.1682 22.5692 16.1146 20.1346C18.9429 18.2922 21.1135 16.2524 21.1135 13.2257C21.1135 9.9357 18.5483 7.76432 15.3911 7.76432C12.2997 7.76432 9.47146 9.8041 9.33991 13.6863H0C0.197322 4.40855 7.03782 0 15.4569 0C24.5995 0 31.1111 4.80335 31.1111 12.8967C31.1111 18.2922 28.3486 21.7796 24.0075 24.3457C20.3242 26.5829 18.6798 28.6885 18.614 33.2945V34.0182H9.93188V33.2945ZM14.4703 48.8889C11.3789 48.8889 8.87949 46.3885 8.94527 43.3617C8.87949 40.335 11.3789 37.9004 14.4703 37.9004C17.3643 37.9004 19.9295 40.335 19.9295 43.3617C19.9295 46.3885 17.3643 48.8889 14.4703 48.8889Z" fill="var(--fill-0, #388A3D)"/>
</svg>
